<?xml version="1.0" standalone="no"?>
<!DOCTYPE svg PUBLIC "-//W3C//DTD SVG 20010904//EN"
 "http://www.w3.org/TR/2001/REC-SVG-20010904/DTD/svg10.dtd">
<svg version="1.0" xmlns="http://www.w3.org/2000/svg"
 width="1604.000000pt" height="2138.000000pt" viewBox="0 0 1604.000000 2138.000000"
 preserveAspectRatio="xMidYMid meet">

<g transform="translate(0.000000,2138.000000) scale(0.100000,-0.100000)"
fill="#000000" stroke="none">
<path d="M2470 21353 c-312 -31 -595 -103 -855 -218 -157 -70 -263 -128 -415
-231 -389 -260 -696 -613 -906 -1039 -128 -260 -212 -536 -256 -840 -19 -133
-19 -16537 0 -16670 60 -415 209 -815 424 -1136 439 -656 1097 -1066 1893
-1181 133 -19 11197 -19 11330 0 624 90 1161 360 1580 793 205 212 351 421
481 684 123 250 198 490 251 795 17 100 18 387 20 6242 l3 6138 -2747 3
c-2566 3 -2754 4 -2833 20 -481 99 -863 434 -1015 890 -70 209 -65 -12 -65
3018 l0 2739 -3427 -2 c-1886 0 -3444 -3 -3463 -5z m4360 -9148 c243 -34 424
-86 599 -175 279 -141 460 -344 550 -621 12 -34 21 -66 21 -71 0 -4 -233 -8
-518 -8 l-518 0 -36 49 c-70 93 -176 159 -318 198 -102 28 -349 25 -455 -5
-111 -32 -190 -77 -260 -148 -270 -272 -197 -775 136 -938 103 -50 174 -66
314 -73 269 -12 466 63 587 223 l40 54 514 0 c422 0 514 -2 514 -13 0 -20 -37
-131 -66 -195 -39 -88 -131 -219 -209 -296 -208 -206 -523 -335 -945 -388
-139 -17 -652 -17 -780 0 -456 62 -745 183 -962 405 -217 223 -324 561 -290
925 19 216 73 379 173 531 216 328 586 505 1169 561 141 13 603 4 740 -15z
m2410 -852 c210 -456 385 -832 389 -836 4 -4 180 366 391 824 211 457 389 833
395 835 5 2 231 3 500 2 l491 -3 -656 -1170 -656 -1170 -460 -3 -461 -2 -654
1166 c-360 642 -655 1171 -657 1175 -2 5 218 9 496 9 l499 0 383 -827z"/>
<path d="M10680 18697 c0 -2125 3 -2669 13 -2672 6 -3 1208 -4 2670 -3 l2657
3 -2670 2670 -2670 2670 0 -2668z"/>
</g>
</svg>
